<?xml version="1.0" standalone="no"?>
<!DOCTYPE svg PUBLIC "-//W3C//DTD SVG 20010904//EN"
 "http://www.w3.org/TR/2001/REC-SVG-20010904/DTD/svg10.dtd">
<svg version="1.0" xmlns="http://www.w3.org/2000/svg"
 width="1600.000000pt" height="1600.000000pt" viewBox="0 0 1600.000000 1600.000000"
 preserveAspectRatio="xMidYMid meet">
<metadata>
Created by potrace 1.16, written by Peter Selinger 2001-2019
</metadata>
<g transform="translate(0.000000,1600.000000) scale(0.100000,-0.100000)"
fill="#000000" stroke="none">
<path d="M6152 8619 c-207 -26 -390 -155 -479 -339 -53 -110 -68 -173 -67
-290 1 -170 59 -306 184 -431 246 -248 628 -249 876 -4 190 188 242 469 130
710 -112 241 -380 388 -644 354z m194 -40 c103 -18 219 -82 300 -164 260 -263
220 -691 -84 -899 -373 -255 -887 -9 -919 439 -8 111 10 203 59 305 73 153
226 276 390 316 67 16 176 17 254 3z"/>
<path d="M6155 8539 c-161 -20 -311 -119 -393 -258 -130 -221 -97 -485 83
-666 174 -174 420 -212 638 -98 182 96 291 279 290 488 -3 328 -290 577 -618
534z m214 -285 c89 -48 151 -153 151 -255 0 -100 -69 -207 -164 -256 -42 -22
-64 -27 -126 -27 -94 0 -152 26 -214 95 -57 63 -80 131 -74 213 9 108 63 187
161 236 57 29 68 31 137 28 60 -4 87 -11 129 -34z"/>
<path d="M6097 8064 c-9 -10 -9 -121 1 -127 4 -3 31 -2 60 0 l52 6 0 58 c0 55
-1 59 -24 59 -13 0 -36 3 -52 6 -16 3 -32 2 -37 -2z"/>
<path d="M6283 8063 c-33 -4 -33 -4 -33 -63 l0 -58 53 -4 c28 -3 56 -1 60 2 4
4 7 34 5 66 -3 65 -7 67 -85 57z"/>
</g>
</svg>
