<?xml version="1.0" standalone="no"?>
<!DOCTYPE svg PUBLIC "-//W3C//DTD SVG 20010904//EN"
 "http://www.w3.org/TR/2001/REC-SVG-20010904/DTD/svg10.dtd">
<svg version="1.0" xmlns="http://www.w3.org/2000/svg"
 width="480.000000pt" height="480.000000pt" viewBox="0 0 480.000000 480.000000"
 preserveAspectRatio="xMidYMid meet">
<metadata>
Created by potrace 1.16, written by Peter Selinger 2001-2019
</metadata>
<g transform="translate(0.000000,480.000000) scale(0.100000,-0.100000)"
fill="#000000" stroke="none">
<path d="M785 3039 c-315 -180 -486 -283 -495 -299 -13 -25 -13 -655 0 -680 9
-16 228 -148 497 -299 l92 -52 43 22 c54 27 210 116 406 231 l152 90 0 348 0
348 -152 90 c-257 151 -438 252 -450 252 -2 0 -43 -23 -93 -51z m196 -119 c30
-5 90 -28 134 -49 124 -61 219 -167 267 -296 32 -86 32 -264 0 -350 -91 -246
-354 -396 -604 -344 -96 20 -197 75 -268 148 -77 79 -114 143 -140 247 -25 97
-25 151 0 248 26 105 63 168 140 247 125 127 297 181 471 149z"/>
<path d="M747 2895 c-248 -68 -407 -313 -370 -570 43 -300 341 -497 636 -420
171 45 310 181 361 354 21 71 21 211 0 282 -52 175 -189 309 -359 354 -71 18
-202 18 -268 0z m248 -49 c156 -41 273 -152 325 -307 18 -53 21 -81 18 -159
-3 -85 -8 -104 -40 -173 -143 -300 -526 -360 -751 -117 -168 181 -167 440 0
621 63 68 118 103 201 130 68 21 178 24 247 5z"/>
<path d="M829 2653 c-52 -8 -132 -66 -163 -117 -58 -93 -46 -223 27 -303 55
-61 105 -83 188 -83 117 0 213 68 244 174 19 62 19 90 0 152 -18 62 -72 126
-128 153 -43 21 -122 32 -168 24z"/>
<path d="M3607 2593 l-49 -4 4 -169 c4 -202 8 -210 95 -210 l55 0 -7 33 c-4
17 -13 37 -21 43 -11 9 -14 44 -14 163 0 83 -3 150 -7 149 -5 -1 -30 -3 -56
-5z"/>
<path d="M4378 2593 l-48 -4 0 -185 0 -184 55 0 55 0 1 53 1 52 24 -52 24 -53
60 0 60 0 -36 73 -36 73 31 51 c17 27 31 53 31 57 0 3 -24 6 -52 6 -53 0 -53
0 -80 -48 l-27 -47 -1 108 c0 59 -3 106 -7 105 -5 -1 -29 -3 -55 -5z"/>
<path d="M1930 2390 l0 -170 55 0 55 0 0 60 0 60 50 0 50 0 0 40 0 40 -50 0
c-49 0 -50 1 -50 30 0 30 1 30 55 30 46 0 55 3 55 18 0 9 3 27 6 40 6 22 6 22
-110 22 l-116 0 0 -170z"/>
<path d="M3230 2391 l0 -171 100 0 c125 0 165 14 178 63 13 45 5 84 -20 102
-19 13 -19 15 -4 36 24 35 20 81 -10 110 -23 21 -36 24 -135 27 l-109 4 0
-171z"/>
<path d="M2231 2483 c-20 -4 -22 -9 -17 -36 9 -43 17 -48 54 -37 34 9 62 5 62
-10 0 -5 -21 -12 -47 -16 -86 -13 -121 -86 -72 -148 20 -26 26 -27 78 -22 77
8 82 8 117 0 28 -5 32 -3 36 19 3 13 2 66 -2 117 -6 85 -9 95 -34 117 -23 19
-37 23 -89 22 -34 -1 -73 -4 -86 -6z"/>
<path d="M2626 2483 c-4 -5 -34 -6 -67 -5 l-59 4 0 -131 0 -131 55 0 54 0 3
92 c3 79 6 93 21 96 15 3 17 -6 17 -92 l0 -96 50 0 50 0 0 118 c0 103 -3 121
-18 135 -19 17 -92 24 -106 10z"/>
<path d="M2855 2479 c-32 -18 -45 -40 -45 -75 0 -41 25 -70 74 -87 41 -14 60
-37 31 -37 -9 0 -29 7 -44 15 -27 13 -30 13 -56 -15 l-28 -29 34 -20 c25 -15
51 -21 97 -21 57 0 67 3 93 29 56 56 32 123 -53 151 -21 6 -38 16 -38 22 0 6
8 8 18 5 9 -3 26 -9 38 -12 16 -5 25 0 38 20 16 25 17 29 2 43 -20 20 -132 28
-161 11z"/>
<path d="M3798 2474 c-45 -24 -64 -74 -60 -162 2 -24 12 -44 36 -68 31 -31 40
-34 90 -34 32 0 70 7 87 16 78 40 78 208 0 248 -38 20 -117 20 -153 0z"/>
<path d="M4114 2471 c-72 -44 -82 -165 -19 -228 29 -29 39 -33 89 -33 55 0
106 15 106 32 0 5 -9 22 -21 37 -19 26 -23 28 -51 17 -26 -9 -32 -8 -44 8 -8
11 -14 32 -14 46 0 14 6 35 14 46 13 17 18 18 45 7 29 -10 32 -9 53 19 l21 31
-22 18 c-31 26 -115 25 -157 0z"/>
</g>
</svg>
