<?xml version="1.0" standalone="no"?>
<!DOCTYPE svg PUBLIC "-//W3C//DTD SVG 20010904//EN"
 "http://www.w3.org/TR/2001/REC-SVG-20010904/DTD/svg10.dtd">
<svg version="1.0" xmlns="http://www.w3.org/2000/svg"
 width="480.000000pt" height="480.000000pt" viewBox="0 0 480.000000 480.000000"
 preserveAspectRatio="xMidYMid meet">
<metadata>
Created by potrace 1.16, written by Peter Selinger 2001-2019
</metadata>
<g transform="translate(0.000000,480.000000) scale(0.100000,-0.100000)"
fill="#000000" stroke="none">
<path d="M2280 3584 c-596 -74 -1035 -537 -1067 -1125 -37 -675 509 -1249
1187 -1249 563 0 1045 393 1166 950 14 63 19 126 18 245 0 177 -18 278 -76
425 -148 377 -475 652 -874 735 -78 16 -286 27 -354 19z m222 -64 c506 -49
908 -415 1003 -913 19 -102 19 -312 0 -414 -29 -154 -93 -303 -187 -440 -59
-85 -197 -221 -287 -282 -92 -63 -236 -128 -348 -158 -89 -24 -115 -27 -283
-27 -168 0 -194 3 -283 27 -112 30 -255 95 -348 157 -87 59 -229 199 -288 284
-140 204 -201 401 -201 650 0 273 84 507 257 718 178 218 464 370 748 397 113
11 110 11 217 1z"/>
<path d="M2238 3425 c-406 -64 -737 -366 -845 -773 -22 -82 -26 -120 -27 -242
-1 -196 25 -312 109 -480 134 -267 388 -469 680 -541 171 -43 402 -34 568 22
262 87 480 276 602 519 84 168 110 284 109 480 -1 122 -5 160 -27 242 -109
411 -440 711 -854 773 -117 18 -199 18 -315 0z m314 -490 c185 -55 335 -210
382 -391 66 -254 -61 -525 -298 -639 -309 -148 -684 27 -771 361 -19 75 -19
203 0 279 54 205 246 376 460 409 47 7 178 -4 227 -19z"/>
<path d="M2181 2829 c-62 -31 -157 -113 -180 -157 -13 -24 -3 -31 66 -46 30
-7 32 -5 55 46 14 29 48 83 76 121 28 37 50 67 48 67 -1 0 -31 -14 -65 -31z"/>
<path d="M2595 2805 c25 -31 59 -84 76 -118 17 -34 33 -63 34 -65 5 -5 95 20
100 28 3 5 -12 30 -33 57 -41 51 -122 112 -185 138 l-38 16 46 -56z"/>
<path d="M2288 2782 c-36 -38 -77 -93 -92 -123 l-27 -54 38 -7 c21 -4 64 -7
96 -7 l57 -1 0 130 c0 72 -2 130 -4 130 -2 0 -33 -31 -68 -68z"/>
<path d="M2440 2719 l0 -132 91 6 c50 3 93 8 96 10 16 16 -96 178 -153 222
l-34 26 0 -132z"/>
<path d="M1940 2548 c-27 -75 -22 -267 9 -316 5 -8 24 -6 66 6 l60 18 -5 35
c-7 49 -6 178 2 220 l6 36 -59 17 c-32 9 -61 16 -63 16 -2 0 -9 -15 -16 -32z"/>
<path d="M2780 2565 l-45 -14 0 -149 0 -149 58 -15 57 -15 13 41 c16 54 15
231 -1 279 -15 41 -17 42 -82 22z"/>
<path d="M2143 2514 c-10 -26 -10 -183 0 -218 6 -23 12 -27 30 -22 12 3 59 9
105 12 l82 7 0 108 0 107 -47 6 c-162 19 -162 19 -170 0z"/>
<path d="M2575 2524 c-11 -2 -46 -6 -77 -9 l-58 -6 0 -110 0 -109 53 -1 c28 0
75 -4 102 -9 28 -4 53 -5 58 -1 12 12 20 134 13 195 -7 55 -8 56 -39 55 -18
-1 -41 -3 -52 -5z"/>
<path d="M2245 2213 c-16 -2 -40 -6 -53 -9 l-23 -5 33 -60 c33 -63 106 -152
139 -170 18 -9 19 -4 19 121 l0 130 -42 -1 c-24 -1 -56 -4 -73 -6z"/>
<path d="M2440 2090 c0 -71 4 -130 9 -130 31 0 195 219 177 237 -8 8 -98 21
-148 22 l-38 1 0 -130z"/>
<path d="M2043 2172 c-29 -8 -53 -18 -53 -23 0 -5 27 -37 60 -72 53 -58 157
-127 189 -127 7 0 -6 22 -29 49 -23 27 -58 80 -78 118 l-37 70 -52 -15z"/>
<path d="M2673 2122 c-18 -37 -54 -91 -79 -120 -25 -28 -40 -52 -34 -52 33 0
136 69 190 127 33 35 60 68 60 73 0 6 -96 43 -104 40 -1 0 -16 -31 -33 -68z"/>
</g>
</svg>
