<?xml version="1.0" standalone="no"?>
<!DOCTYPE svg PUBLIC "-//W3C//DTD SVG 20010904//EN"
 "http://www.w3.org/TR/2001/REC-SVG-20010904/DTD/svg10.dtd">
<svg version="1.0" xmlns="http://www.w3.org/2000/svg"
 width="600.000000pt" height="600.000000pt" viewBox="0 0 600.000000 600.000000"
 preserveAspectRatio="xMidYMid meet">
<metadata>
Created by potrace 1.16, written by Peter Selinger 2001-2019
</metadata>
<g transform="translate(0.000000,600.000000) scale(0.100000,-0.100000)"
fill="#000000" stroke="none">
<path d="M965 3655 c-265 -58 -469 -267 -521 -535 -68 -345 165 -698 512 -775
115 -26 264 -17 370 22 199 74 347 226 415 423 30 89 38 269 15 360 -21 84
-84 212 -134 272 -161 193 -421 285 -657 233z m290 -40 c113 -29 203 -81 290
-169 130 -130 187 -265 188 -441 1 -274 -168 -510 -428 -602 -70 -24 -95 -27
-200 -28 -141 0 -221 20 -324 83 -354 214 -415 695 -126 987 78 79 192 145
292 169 79 19 234 20 308 1z"/>
<path d="M1038 3578 c-131 -13 -251 -71 -348 -168 -226 -226 -229 -589 -5
-816 79 -80 134 -115 233 -149 147 -52 297 -40 448 34 348 172 430 633 161
917 -134 141 -296 202 -489 182z m199 -296 c66 -34 109 -78 143 -144 56 -113
35 -257 -52 -347 -124 -130 -336 -129 -453 1 -57 62 -79 120 -79 208 0 58 5
87 23 128 28 63 112 143 173 166 62 23 190 16 245 -12z"/>
<path d="M1200 3072 c-79 -6 -80 -7 -80 -71 l0 -58 61 -7 c34 -4 63 -5 66 -2
9 8 5 128 -3 135 -5 3 -25 5 -44 3z"/>
<path d="M954 3045 c-7 -27 0 -102 10 -112 3 -3 30 -2 61 2 l56 7 -3 61 -3 62
-57 3 c-55 3 -58 2 -64 -23z"/>
</g>
</svg>
