<?xml version="1.0" standalone="no"?>
<!DOCTYPE svg PUBLIC "-//W3C//DTD SVG 20010904//EN"
 "http://www.w3.org/TR/2001/REC-SVG-20010904/DTD/svg10.dtd">
<svg version="1.0" xmlns="http://www.w3.org/2000/svg"
 width="480.000000pt" height="480.000000pt" viewBox="0 0 480.000000 480.000000"
 preserveAspectRatio="xMidYMid meet">
<metadata>
Created by potrace 1.16, written by Peter Selinger 2001-2019
</metadata>
<g transform="translate(0.000000,480.000000) scale(0.100000,-0.100000)"
fill="#000000" stroke="none">
<path d="M805 2929 c-204 -26 -377 -179 -439 -388 -18 -62 -21 -202 -5 -271
44 -190 228 -364 423 -399 211 -38 420 49 539 226 261 386 -54 892 -518 832z
m177 -33 c105 -23 175 -61 254 -140 81 -82 116 -146 141 -259 53 -243 -102
-502 -345 -577 -71 -22 -197 -26 -272 -9 -170 39 -319 187 -366 364 -18 67
-17 187 1 260 55 211 258 367 485 374 19 0 65 -6 102 -13z"/>
<path d="M791 2859 c-123 -24 -260 -127 -320 -239 -143 -268 1 -598 294 -675
291 -75 584 150 585 450 0 295 -271 521 -559 464z m204 -237 c138 -71 177
-251 81 -377 -29 -38 -107 -81 -163 -90 -111 -18 -235 64 -268 178 -36 125 29
255 153 302 50 20 147 13 197 -13z"/>
</g>
</svg>
