<?xml version="1.0" standalone="no"?>
<!DOCTYPE svg PUBLIC "-//W3C//DTD SVG 20010904//EN"
 "http://www.w3.org/TR/2001/REC-SVG-20010904/DTD/svg10.dtd">
<svg version="1.0" xmlns="http://www.w3.org/2000/svg"
 width="256.000000pt" height="256.000000pt" viewBox="0 0 256.000000 256.000000"
 preserveAspectRatio="xMidYMid meet">
<metadata>
Created by potrace 1.16, written by Peter Selinger 2001-2019
</metadata>
<g transform="translate(0.000000,256.000000) scale(0.100000,-0.100000)"
fill="#000000" stroke="none">
<path d="M411 1559 c-131 -26 -225 -142 -225 -279 0 -245 286 -379 468 -219
125 110 137 287 27 412 -60 68 -175 105 -270 86z m191 -46 c122 -68 172 -228
110 -350 -27 -51 -99 -117 -148 -134 -61 -21 -152 -16 -206 10 -104 50 -167
164 -154 275 24 189 231 292 398 199z"/>
<path d="M381 1513 c-62 -22 -124 -87 -146 -153 -41 -123 14 -252 130 -306
174 -82 370 55 352 246 -15 167 -176 269 -336 213z m175 -136 c65 -59 56 -162
-19 -207 -117 -72 -251 68 -174 181 28 42 60 59 115 59 34 0 49 -6 78 -33z"/>
</g>
</svg>
