<svg xmlns="http://www.w3.org/2000/svg" xmlns:xlink="http://www.w3.org/1999/xlink" width="300" zoomAndPan="magnify" viewBox="0 0 224.87999 56.249996" height="75" preserveAspectRatio="xMidYMid meet" version="1.0"><defs><g/><clipPath id="4fd81ec0b1"><path d="M 74.828125 10 L 107 10 L 107 51.230469 L 74.828125 51.230469 Z M 74.828125 10 " clip-rule="nonzero"/></clipPath><clipPath id="42683ae84e"><path d="M 79 0 L 111.421875 0 L 111.421875 41 L 79 41 Z M 79 0 " clip-rule="nonzero"/></clipPath></defs><g clip-path="url(#4fd81ec0b1)"><path fill="#010101" d="M 101.242188 41.144531 C 101.242188 36.109375 101.242188 31.152344 101.242188 26.195312 C 101.179688 26.171875 101.117188 26.148438 101.054688 26.121094 C 98.4375 29.433594 95.820312 32.742188 93.109375 36.167969 C 92.144531 34.957031 91.21875 33.800781 90.214844 32.535156 C 85.28125 38.785156 80.382812 44.980469 75.449219 51.230469 C 75.222656 51.046875 75.042969 50.902344 74.828125 50.730469 C 85.335938 37.421875 95.800781 24.164062 106.402344 10.734375 C 106.402344 21 106.402344 31.046875 106.402344 41.144531 C 104.707031 41.144531 103.058594 41.144531 101.242188 41.144531 Z M 101.242188 41.144531 " fill-opacity="1" fill-rule="nonzero"/></g><g clip-path="url(#42683ae84e)"><path fill="#010101" d="M 79.820312 10.875 C 83.652344 15.726562 87.367188 20.429688 91.164062 25.238281 C 91.453125 24.890625 91.707031 24.589844 91.949219 24.285156 C 98.039062 16.566406 104.125 8.847656 110.222656 1.136719 C 110.492188 0.796875 110.746094 0.0117188 111.417969 0.90625 C 103.765625 10.601562 96.105469 20.304688 88.359375 30.121094 C 87.277344 28.773438 86.25 27.488281 85.101562 26.054688 C 85.058594 26.433594 85.011719 26.648438 85.011719 26.863281 C 85.007812 29.101562 85.035156 31.339844 84.988281 33.574219 C 84.976562 34.035156 84.804688 34.570312 84.53125 34.933594 C 83.03125 36.90625 81.476562 38.835938 79.816406 40.933594 C 79.820312 30.859375 79.820312 20.976562 79.820312 10.875 Z M 79.820312 10.875 " fill-opacity="1" fill-rule="nonzero"/></g><g fill="#010101" fill-opacity="1"><g transform="translate(26.716861, 44.268397)"><g><path d="M 33.34375 -16.015625 C 33.34375 -10.640625 32.023438 -6.550781 29.390625 -3.75 C 26.753906 -0.957031 22.894531 0.4375 17.8125 0.4375 C 12.800781 0.4375 8.957031 -0.96875 6.28125 -3.78125 C 3.601562 -6.59375 2.265625 -10.6875 2.265625 -16.0625 C 2.265625 -21.375 3.59375 -25.429688 6.25 -28.234375 C 8.914062 -31.046875 12.785156 -32.453125 17.859375 -32.453125 C 22.941406 -32.453125 26.789062 -31.054688 29.40625 -28.265625 C 32.03125 -25.484375 33.34375 -21.398438 33.34375 -16.015625 Z M 11.359375 -16.015625 C 11.359375 -9.835938 13.507812 -6.75 17.8125 -6.75 C 19.988281 -6.75 21.601562 -7.5 22.65625 -9 C 23.71875 -10.5 24.25 -12.835938 24.25 -16.015625 C 24.25 -19.203125 23.710938 -21.554688 22.640625 -23.078125 C 21.578125 -24.609375 19.984375 -25.375 17.859375 -25.375 C 13.523438 -25.375 11.359375 -22.253906 11.359375 -16.015625 Z M 11.359375 -16.015625 "/></g></g></g><g fill="#010101" fill-opacity="1"><g transform="translate(126.636783, 45.314549)"><g><path d="M 22.421875 0 L 3.453125 0 L 3.453125 -31.953125 L 22.421875 -31.953125 L 22.421875 -25.015625 L 12.078125 -25.015625 L 12.078125 -20 L 21.65625 -20 L 21.65625 -13.0625 L 12.078125 -13.0625 L 12.078125 -7.03125 L 22.421875 -7.03125 Z M 22.421875 0 "/></g></g></g><g fill="#010101" fill-opacity="1"><g transform="translate(163.873419, 44.698967)"><g><path d="M 30.828125 0 L 22.15625 0 L 22.15625 -13.015625 L 12.125 -13.015625 L 12.125 0 L 3.453125 0 L 3.453125 -31.953125 L 12.125 -31.953125 L 12.125 -20.109375 L 22.15625 -20.109375 L 22.15625 -31.953125 L 30.828125 -31.953125 Z M 30.828125 0 "/></g></g></g></svg>