<svg version="1.1" id="Layer_1" xmlns="http://www.w3.org/2000/svg" xmlns:xlink="http://www.w3.org/1999/xlink" x="0px" y="0px"
	 width="100%" viewBox="0 0 600 600" enable-background="new 0 0 600 600" xml:space="preserve">
<path fill="#000000" opacity="1.000000" stroke="none" 
	d="
M334.000000,601.000000 
	C222.666672,601.000000 111.833336,601.000000 1.000000,601.000000 
	C1.000000,401.000000 1.000000,201.000000 1.000000,1.000000 
	C201.000000,1.000000 401.000000,1.000000 601.000000,1.000000 
	C601.000000,201.000000 601.000000,401.000000 601.000000,601.000000 
	C512.166687,601.000000 423.333344,601.000000 334.000000,601.000000 
M185.976608,300.071472 
	C185.934464,294.713287 185.892319,289.355072 185.987793,283.073761 
	C185.941544,278.377533 185.895294,273.681274 185.982162,268.082611 
	C186.052429,256.625854 185.628677,255.902069 176.828705,252.300766 
	C168.597015,247.520493 160.365326,242.740219 151.812637,237.307465 
	C139.739334,230.566055 127.564796,223.995865 115.665154,216.960693 
	C112.755814,215.240692 110.755096,214.834198 107.833527,216.532730 
	C94.239449,224.435944 80.541779,232.160995 66.229645,240.220291 
	C56.814606,245.874252 47.399567,251.528198 37.471230,257.097900 
	C37.375130,257.391327 37.279030,257.684753 37.040089,258.484528 
	C37.082073,258.654816 37.124054,258.825104 37.010971,259.867523 
	C36.729042,265.236420 36.447109,270.605286 36.005653,276.901794 
	C36.057953,282.264160 36.110252,287.626495 36.006237,293.915344 
	C36.058018,299.938568 36.109798,305.961761 36.005173,312.908997 
	C36.054466,317.934509 36.103760,322.960022 36.002502,328.883423 
	C35.996880,330.544891 35.731312,332.256042 36.037502,333.857910 
	C36.768623,337.682892 36.507679,343.098083 38.901592,344.937683 
	C45.643085,350.118347 53.521030,353.820099 61.231155,358.741364 
	C76.299660,367.414307 91.380768,376.065430 106.427353,384.776245 
	C109.972771,386.828766 112.805923,386.564056 116.558731,384.321136 
	C129.815094,376.398376 143.482178,369.166168 156.908981,361.523590 
	C162.095764,358.571259 167.056534,355.221802 172.840012,351.983032 
	C180.070892,348.073792 188.850220,345.282013 185.964447,333.055481 
	C185.917862,328.031281 185.871277,323.007050 185.958160,317.058472 
	C185.916443,311.704529 185.874725,306.350555 185.976608,300.071472 
M459.971466,309.068024 
	C459.926300,304.041504 459.881134,299.015015 459.971954,293.062439 
	C459.971954,287.808075 459.971954,282.553711 459.971954,276.688599 
	C455.339142,277.100494 451.239929,277.464935 447.164368,277.827301 
	C447.164368,283.743683 447.164368,288.866119 447.007843,294.912262 
	C447.060516,299.938843 447.113190,304.965393 447.013916,310.876678 
	C444.980286,325.153351 455.490967,327.241730 464.507721,323.569855 
	C463.926056,320.886414 464.101532,316.578979 462.618347,315.901245 
	C459.367401,314.415741 460.316528,312.111450 459.971466,309.068024 
M508.165680,301.416779 
	C508.163788,305.269470 508.161896,309.122192 508.188232,313.684601 
	C514.951294,326.306915 526.801941,329.263977 537.288635,320.573761 
	C535.598694,318.008148 533.881226,315.400818 532.123108,312.731720 
	C528.581665,313.932129 525.325745,317.006500 521.979126,312.150574 
	C522.024292,308.448212 522.069458,304.745819 522.763367,300.756256 
	C525.700928,300.569702 528.638489,300.383118 531.576050,300.196564 
	C531.706665,300.729095 531.837280,301.261627 531.967957,301.794159 
	C533.336365,299.995941 535.057190,298.351379 535.934937,296.339111 
	C536.424561,295.216614 536.011230,292.679962 535.155212,292.148285 
	C526.410522,286.716614 511.590332,288.950867 508.165680,301.416779 
M365.388306,299.187500 
	C368.698029,299.645935 372.007751,300.104401 375.575867,300.598663 
	C376.840851,298.715973 378.323090,296.509888 380.536957,293.214966 
	C375.633240,291.709808 371.338898,289.950989 366.871918,289.119232 
	C359.343903,287.717560 352.106262,293.812561 352.019592,301.741394 
	C352.759857,306.654266 356.034637,309.276978 360.342865,310.983246 
	C362.867157,311.982971 365.376953,313.019257 367.708099,314.770813 
	C364.636230,317.570496 362.070343,315.166687 359.212250,314.178955 
	C357.721191,313.663666 355.424011,313.740997 354.211639,314.585388 
	C352.576447,315.724274 351.635620,317.860138 350.369934,319.605194 
	C355.489319,326.014709 368.707947,326.665985 375.034790,322.890442 
	C378.196899,321.003418 381.353394,318.542542 380.964264,313.203278 
	C380.963196,307.742859 377.496643,304.972168 373.006378,303.057648 
	C370.382141,301.938812 367.701843,300.951294 365.388306,299.187500 
M292.949768,301.883789 
	C291.022797,302.256531 289.107483,302.862457 287.166718,302.959534 
	C280.586853,303.288666 276.703552,306.126190 275.017517,312.837372 
	C274.540833,317.829041 275.517853,322.318634 280.754181,324.159332 
	C286.099945,326.038483 291.384125,325.926941 295.489227,321.087433 
	C296.346771,321.895538 296.991028,322.701477 297.810394,323.241882 
	C302.530975,326.355530 305.078033,325.581299 306.306213,320.079071 
	C306.870911,317.549377 306.035095,314.707062 305.968658,311.146729 
	C305.590027,307.763367 305.211395,304.379974 304.975403,300.191833 
	C303.588470,297.227539 302.963562,292.698639 300.675598,291.584259 
	C292.972260,287.832245 284.866455,289.022003 276.800934,292.134338 
	C277.903412,295.238037 278.851990,297.908478 279.892700,300.838318 
	C281.669159,300.205292 283.107269,299.325562 284.589813,299.242889 
	C287.463379,299.082642 290.742188,297.679230 292.949768,301.883789 
M243.006500,293.913513 
	C243.058838,298.939484 243.111176,303.965454 243.011520,309.916138 
	C243.011520,314.507294 243.011520,319.098450 243.011520,323.674561 
	C247.639725,323.674561 251.688309,323.674561 255.837158,323.674561 
	C255.837158,318.569916 255.837158,313.780640 256.308167,308.245575 
	C260.166748,308.245575 264.025299,308.245575 267.642761,308.245575 
	C267.642761,304.553619 267.642761,301.847595 267.642761,298.784393 
	C263.565704,298.784393 259.847565,298.784393 256.167511,298.784393 
	C256.039368,296.935425 255.937271,295.462463 255.971268,293.113586 
	C255.378433,289.730072 257.577179,289.947479 259.848480,289.964142 
	C262.815735,289.985931 266.517456,290.805725 268.534302,289.365387 
	C270.332489,288.081207 270.268311,284.189178 271.065948,281.303528 
	C261.599213,281.303528 252.408401,281.303528 243.162735,281.303528 
	C243.162735,285.404877 243.162735,289.197510 243.006500,293.913513 
M326.968445,305.226410 
	C327.935974,303.138489 328.903473,301.050568 329.871002,298.962646 
	C330.426361,299.123108 330.981720,299.283569 331.537048,299.444000 
	C331.746216,301.625519 331.955383,303.807068 332.007721,306.914764 
	C332.007721,312.502960 332.007721,318.091125 332.007721,323.672302 
	C336.637329,323.672302 340.686432,323.672302 344.836395,323.672302 
	C344.836395,317.566071 344.836395,311.777313 344.969086,305.085022 
	C344.978882,302.921600 345.023529,300.757660 344.992004,298.594849 
	C344.893433,291.829987 339.984100,288.160156 333.293976,289.960602 
	C330.867340,290.613678 328.521942,292.340454 326.162628,292.297791 
	C322.233582,292.226746 318.323212,291.124054 314.215057,290.423370 
	C314.087708,292.227966 313.997620,292.872864 314.004028,293.516754 
	C314.045410,297.674194 314.107880,301.831451 314.006866,306.914978 
	C314.006866,312.503113 314.006866,318.091278 314.006866,323.672180 
	C318.636749,323.672180 322.685760,323.672180 326.836121,323.672180 
	C326.836121,317.565582 326.836121,311.777130 326.968445,305.226410 
M437.968170,295.237488 
	C439.030365,288.517334 436.262756,282.776886 430.684143,282.126404 
	C422.271393,281.145508 413.754089,281.061310 405.169128,280.589813 
	C405.169128,286.393982 405.169128,291.190948 405.011414,296.909882 
	C405.063538,301.603210 405.115662,306.296570 405.014923,311.911407 
	C405.014923,315.847809 405.014923,319.784210 405.014923,324.459717 
	C413.861633,323.942932 422.101471,323.730286 430.278320,322.898529 
	C436.769257,322.238281 440.143707,317.618896 439.969299,310.211639 
	C438.326965,306.964417 436.684631,303.717163 434.775238,299.941925 
	C435.296753,299.267334 436.564301,297.627747 437.968170,295.237488 
M569.778931,308.313904 
	C567.232422,305.598114 569.287476,303.278656 570.550049,301.030304 
	C572.329895,297.860779 574.352417,294.827515 576.228149,291.805237 
	C565.352051,288.120758 559.652893,293.176849 555.842346,302.321259 
	C555.842346,299.543762 555.842346,296.766266 555.977417,293.062622 
	C555.977417,287.806915 555.977417,282.551239 555.977417,276.696075 
	C551.339050,277.095917 547.240967,277.449188 543.164246,277.800629 
	C543.164246,283.741394 543.164246,288.865417 543.007812,294.912933 
	C543.060608,299.938934 543.113403,304.964966 543.013794,310.913269 
	C543.013794,315.167542 543.013794,319.421783 543.013794,323.691345 
	C547.619446,323.691345 551.664062,323.691345 556.116516,323.691345 
	C556.116516,318.945404 556.116516,314.495880 556.500488,310.005829 
	C556.500488,310.005829 556.884399,310.046173 556.989746,310.800598 
	C558.848938,315.181122 560.708130,319.561646 562.434082,323.628113 
	C567.489624,323.628113 572.141907,323.628113 577.323608,323.628113 
	C574.653992,318.410767 572.244507,313.701782 569.778931,308.313904 
M468.007812,306.850464 
	C467.836456,312.764557 468.912659,318.299408 474.038910,321.972748 
	C480.313385,326.468842 487.436371,326.314148 493.951874,323.283264 
	C500.982666,320.012665 502.897156,313.447235 501.968414,305.158173 
	C502.243958,294.690582 494.726471,289.580841 484.949585,289.109863 
	C475.231750,288.641632 468.133789,296.205383 468.007812,306.850464 
z"/>
<path fill="#D08B43" opacity="1.000000" stroke="none" 
	d="
M172.120255,352.053253 
	C167.056534,355.221802 162.095764,358.571259 156.908981,361.523590 
	C143.482178,369.166168 129.815094,376.398376 116.558731,384.321136 
	C112.805923,386.564056 109.972771,386.828766 106.427353,384.776245 
	C91.380768,376.065430 76.299660,367.414307 61.392059,358.142944 
	C65.171440,356.974792 68.789925,356.405090 72.723251,355.932251 
	C82.033669,362.101562 91.822784,366.792023 102.577553,367.813110 
	C122.736176,369.727051 140.918655,364.205109 156.894745,350.813599 
	C162.301575,351.266327 167.210922,351.659790 172.120255,352.053253 
z"/>
<path fill="#FDE7A1" opacity="1.000000" stroke="none" 
	d="
M66.881172,239.949799 
	C80.541779,232.160995 94.239449,224.435944 107.833527,216.532730 
	C110.755096,214.834198 112.755814,215.240692 115.665154,216.960693 
	C127.564796,223.995865 139.739334,230.566055 151.561676,237.703888 
	C147.486588,238.758072 143.662460,239.415848 139.476074,240.038330 
	C137.429337,239.330490 135.765961,238.598206 134.057159,237.994476 
	C114.310097,231.017776 95.384064,233.385559 76.749069,242.881454 
	C73.220879,241.797302 70.051025,240.873550 66.881172,239.949799 
z"/>
<path fill="#D7994F" opacity="1.000000" stroke="none" 
	d="
M72.408409,355.835388 
	C68.789925,356.405090 65.171440,356.974792 61.251957,357.824707 
	C53.521030,353.820099 45.643085,350.118347 38.901592,344.937683 
	C36.507679,343.098083 36.768623,337.682892 36.037502,333.857910 
	C35.731312,332.256042 35.996880,330.544891 36.527039,328.440735 
	C41.108341,327.647705 45.165104,327.297333 49.474186,327.179688 
	C54.719978,338.935333 62.342869,348.359985 72.408409,355.835388 
z"/>
<path fill="#E3AC62" opacity="1.000000" stroke="none" 
	d="
M501.835999,305.989563 
	C502.897156,313.447235 500.982666,320.012665 493.951874,323.283264 
	C487.436371,326.314148 480.313385,326.468842 474.038910,321.972748 
	C468.912659,318.299408 467.836456,312.764557 468.485229,306.441833 
	C472.920563,306.018707 476.878479,306.004181 480.914459,306.399017 
	C481.062225,310.518860 481.361542,314.117401 486.615112,316.761505 
	C487.554352,312.791504 488.358978,309.390625 489.560303,306.011353 
	C493.916656,306.018494 497.876343,306.004028 501.835999,305.989563 
z"/>
<path fill="#E8B66D" opacity="1.000000" stroke="none" 
	d="
M555.842346,293.988770 
	C555.842346,296.766266 555.842346,299.543762 555.842346,302.321259 
	C559.652893,293.176849 565.352051,288.120758 576.228149,291.805237 
	C574.352417,294.827515 572.329895,297.860779 570.550049,301.030304 
	C569.287476,303.278656 567.232422,305.598114 569.399048,308.675171 
	C564.974304,309.372986 560.929321,309.709595 556.884399,310.046173 
	C556.884399,310.046173 556.500488,310.005829 555.839600,310.014526 
	C551.174561,310.012482 547.170410,310.001740 543.166199,309.990967 
	C543.113403,304.964966 543.060608,299.938934 543.537048,294.454559 
	C547.991638,293.993713 551.916992,293.991241 555.842346,293.988770 
z"/>
<path fill="#E8B66D" opacity="1.000000" stroke="none" 
	d="
M405.167786,310.989929 
	C405.115662,306.296570 405.063538,301.603210 405.542786,296.451538 
	C410.328918,295.993439 414.583679,295.993652 419.012482,296.317444 
	C421.085114,296.081909 422.983673,295.522766 425.269165,295.127258 
	C429.714661,295.523315 433.773224,295.755737 437.831848,295.988159 
	C436.564301,297.627747 435.296753,299.267334 434.775238,299.941925 
	C436.684631,303.717163 438.326965,306.964417 439.452881,310.603271 
	C434.679596,310.660553 430.422699,310.326202 426.091064,309.614594 
	C424.689392,305.814880 422.224915,305.386627 419.127686,306.457306 
	C419.021484,307.742126 418.928680,308.864716 418.438416,310.065704 
	C413.749878,310.426025 409.458801,310.707977 405.167786,310.989929 
z"/>
<path fill="#EBBA70" opacity="1.000000" stroke="none" 
	d="
M314.163452,305.988770 
	C314.107880,301.831451 314.045410,297.674194 314.004028,293.516754 
	C313.997620,292.872864 314.087708,292.227966 314.215057,290.423370 
	C318.323212,291.124054 322.233582,292.226746 326.162628,292.297791 
	C328.521942,292.340454 330.867340,290.613678 333.293976,289.960602 
	C339.984100,288.160156 344.893433,291.829987 344.992004,298.594849 
	C345.023529,300.757660 344.978882,302.921600 344.451782,305.540710 
	C340.011139,305.993835 336.087860,305.991211 332.164551,305.988586 
	C331.955383,303.807068 331.746216,301.625519 331.537048,299.444000 
	C330.981720,299.283569 330.426361,299.123108 329.871002,298.962646 
	C328.903473,301.050568 327.935974,303.138489 326.451324,305.611450 
	C322.010620,305.993896 318.087036,305.991333 314.163452,305.988770 
z"/>
<path fill="#F0C37A" opacity="1.000000" stroke="none" 
	d="
M418.838440,295.993866 
	C414.583679,295.993652 410.328918,295.993439 405.621643,295.990570 
	C405.169128,291.190948 405.169128,286.393982 405.169128,280.589813 
	C413.754089,281.061310 422.271393,281.145508 430.684143,282.126404 
	C436.262756,282.776886 439.030365,288.517334 437.899994,295.612823 
	C433.773224,295.755737 429.714661,295.523315 425.326477,294.739594 
	C423.501038,292.514526 422.005157,290.840729 420.509277,289.166962 
	C420.076660,289.487610 419.644073,289.808228 419.211456,290.128845 
	C419.087128,292.083862 418.962799,294.038849 418.838440,295.993866 
z"/>
<path fill="#EBBA70" opacity="1.000000" stroke="none" 
	d="
M501.902222,305.573853 
	C497.876343,306.004028 493.916656,306.018494 489.494019,305.615997 
	C487.894836,303.139191 486.758667,301.079376 485.622498,299.019562 
	C484.202057,300.733154 482.740173,302.415009 481.388916,304.181549 
	C481.030090,304.650665 481.011292,305.379883 480.836365,305.989685 
	C476.878479,306.004181 472.920563,306.018707 468.563263,306.011353 
	C468.133789,296.205383 475.231750,288.641632 484.949585,289.109863 
	C494.726471,289.580841 502.243958,294.690582 501.902222,305.573853 
z"/>
<path fill="#E3AC62" opacity="1.000000" stroke="none" 
	d="
M426.165802,309.991852 
	C430.422699,310.326202 434.679596,310.660553 439.384399,310.992401 
	C440.143707,317.618896 436.769257,322.238281 430.278320,322.898529 
	C422.101471,323.730286 413.861633,323.942932 405.014923,324.459717 
	C405.014923,319.784210 405.014923,315.847809 405.091339,311.450684 
	C409.458801,310.707977 413.749878,310.426025 418.514618,310.480652 
	C419.771454,311.876160 420.429443,313.696381 421.361450,313.849548 
	C424.033417,314.288666 426.160828,313.261414 426.165802,309.991852 
z"/>
<path fill="#D7994F" opacity="1.000000" stroke="none" 
	d="
M172.480133,352.018127 
	C167.210922,351.659790 162.301575,351.266327 157.065811,350.507629 
	C161.133865,344.751251 165.528351,339.360107 170.394012,333.975342 
	C175.854675,333.980347 180.844177,333.979004 185.833694,333.977661 
	C188.850220,345.282013 180.070892,348.073792 172.480133,352.018127 
z"/>
<path fill="#E3AC62" opacity="1.000000" stroke="none" 
	d="
M305.834351,312.006500 
	C306.035095,314.707062 306.870911,317.549377 306.306213,320.079071 
	C305.078033,325.581299 302.530975,326.355530 297.810394,323.241882 
	C296.991028,322.701477 296.346771,321.895538 295.489227,321.087433 
	C291.384125,325.926941 286.099945,326.038483 280.754181,324.159332 
	C275.517853,322.318634 274.540833,317.829041 275.499451,312.434937 
	C279.930084,312.351562 283.878754,312.670563 287.908569,313.341736 
	C290.489899,316.764740 291.028809,316.587555 293.562622,312.066528 
	C297.915009,312.097076 301.874695,312.051788 305.834351,312.006500 
z"/>
<path fill="#FADA94" opacity="1.000000" stroke="none" 
	d="
M66.555405,240.085052 
	C70.051025,240.873550 73.220879,241.797302 76.560547,243.166565 
	C70.479797,249.073074 64.229233,254.534088 57.567642,259.927185 
	C50.493092,259.571320 43.829563,259.283325 37.166031,258.995361 
	C37.124054,258.825104 37.082073,258.654816 37.275230,258.131531 
	C37.714756,257.616608 37.872810,257.417816 37.984528,257.182159 
	C47.399567,251.528198 56.814606,245.874252 66.555405,240.085052 
z"/>
<path fill="#E8B66D" opacity="1.000000" stroke="none" 
	d="
M243.163498,308.991425 
	C243.111176,303.965454 243.058838,298.939484 243.480164,293.529205 
	C247.914276,293.426453 251.874725,293.707977 255.835175,293.989502 
	C255.937271,295.462463 256.039368,296.935425 256.167511,298.784393 
	C259.847565,298.784393 263.565704,298.784393 267.642761,298.784393 
	C267.642761,301.847595 267.642761,304.553619 267.642761,308.245575 
	C264.025299,308.245575 260.166748,308.245575 255.621643,308.621460 
	C251.011246,308.995331 247.087372,308.993378 243.163498,308.991425 
z"/>
<path fill="#F2D591" opacity="1.000000" stroke="none" 
	d="
M177.123764,252.952240 
	C185.628677,255.902069 186.052429,256.625854 185.464630,268.541626 
	C180.284744,269.334503 175.622421,269.668365 170.697723,269.783630 
	C167.100586,264.791107 163.765808,260.017120 160.849854,255.067261 
	C163.182556,254.595657 165.089722,254.242859 167.011795,254.016815 
	C170.377640,253.620956 173.752609,253.302902 177.123764,252.952240 
z"/>
<path fill="#F0C37A" opacity="1.000000" stroke="none" 
	d="
M255.903229,293.551544 
	C251.874725,293.707977 247.914276,293.426453 243.558289,293.067505 
	C243.162735,289.197510 243.162735,285.404877 243.162735,281.303528 
	C252.408401,281.303528 261.599213,281.303528 271.065948,281.303528 
	C270.268311,284.189178 270.332489,288.081207 268.534302,289.365387 
	C266.517456,290.805725 262.815735,289.985931 259.848480,289.964142 
	C257.577179,289.947479 255.378433,289.730072 255.903229,293.551544 
z"/>
<path fill="#F2D591" opacity="1.000000" stroke="none" 
	d="
M37.088501,259.431458 
	C43.829563,259.283325 50.493092,259.571320 57.480381,260.256470 
	C54.825344,265.760803 51.846550,270.868042 48.414619,275.978577 
	C44.029381,275.979340 40.097279,275.976776 36.165180,275.974182 
	C36.447109,270.605286 36.729042,265.236420 37.088501,259.431458 
z"/>
<path fill="#E8B66D" opacity="1.000000" stroke="none" 
	d="
M305.901489,311.576599 
	C301.874695,312.051788 297.915009,312.097076 293.485107,311.684235 
	C289.906586,309.218872 289.417206,309.385254 287.827423,312.989624 
	C283.878754,312.670563 279.930084,312.351562 275.575989,312.011047 
	C276.703552,306.126190 280.586853,303.288666 287.166718,302.959534 
	C289.107483,302.862457 291.022797,302.256531 293.388885,301.450256 
	C297.496246,301.010010 301.164520,301.003326 304.832764,300.996643 
	C305.211395,304.379974 305.590027,307.763367 305.901489,311.576599 
z"/>
<path fill="#E8B66D" opacity="1.000000" stroke="none" 
	d="
M367.893280,314.039093 
	C365.376953,313.019257 362.867157,311.982971 360.342865,310.983246 
	C356.034637,309.276978 352.759857,306.654266 352.495270,301.388611 
	C357.104492,301.814667 361.322754,303.497864 365.046783,299.904694 
	C367.701843,300.951294 370.382141,301.938812 373.006378,303.057648 
	C377.496643,304.972168 380.963196,307.742859 380.442322,313.597656 
	C375.911316,314.007721 371.902313,314.023407 367.893280,314.039093 
z"/>
<path fill="#FADA94" opacity="1.000000" stroke="none" 
	d="
M176.976227,252.626511 
	C173.752609,253.302902 170.377640,253.620956 167.011795,254.016815 
	C165.089722,254.242859 163.182556,254.595657 160.586533,254.891815 
	C153.215698,249.952698 146.527008,245.013168 139.838318,240.073624 
	C143.662460,239.415848 147.486588,238.758072 151.722183,238.030121 
	C160.365326,242.740219 168.597015,247.520493 176.976227,252.626511 
z"/>
<path fill="#E3AC62" opacity="1.000000" stroke="none" 
	d="
M367.800690,314.404968 
	C371.902313,314.023407 375.911316,314.007721 380.373444,313.990112 
	C381.353394,318.542542 378.196899,321.003418 375.034790,322.890442 
	C368.707947,326.665985 355.489319,326.014709 350.369934,319.605194 
	C351.635620,317.860138 352.576447,315.724274 354.211639,314.585388 
	C355.424011,313.740997 357.721191,313.663666 359.212250,314.178955 
	C362.070343,315.166687 364.636230,317.570496 367.800690,314.404968 
z"/>
<path fill="#E3AC62" opacity="1.000000" stroke="none" 
	d="
M522.107788,312.962036 
	C525.325745,317.006500 528.581665,313.932129 532.123108,312.731720 
	C533.881226,315.400818 535.598694,318.008148 537.288635,320.573761 
	C526.801941,329.263977 514.951294,326.306915 508.629181,313.336426 
	C513.416016,312.979553 517.761902,312.970795 522.107788,312.962036 
z"/>
<path fill="#EBBA70" opacity="1.000000" stroke="none" 
	d="
M304.904083,300.594238 
	C301.164520,301.003326 297.496246,301.010010 293.363464,301.025879 
	C290.742188,297.679230 287.463379,299.082642 284.589813,299.242889 
	C283.107269,299.325562 281.669159,300.205292 279.892700,300.838318 
	C278.851990,297.908478 277.903412,295.238037 276.800934,292.134338 
	C284.866455,289.022003 292.972260,287.832245 300.675598,291.584259 
	C302.963562,292.698639 303.588470,297.227539 304.904083,300.594238 
z"/>
<path fill="#EBBA70" opacity="1.000000" stroke="none" 
	d="
M365.217529,299.546082 
	C361.322754,303.497864 357.104492,301.814667 352.569153,301.016174 
	C352.106262,293.812561 359.343903,287.717560 366.871918,289.119232 
	C371.338898,289.950989 375.633240,291.709808 380.536957,293.214966 
	C378.323090,296.509888 376.840851,298.715973 375.575867,300.598663 
	C372.007751,300.104401 368.698029,299.645935 365.217529,299.546082 
z"/>
<path fill="#EBBA70" opacity="1.000000" stroke="none" 
	d="
M508.890625,300.956055 
	C511.590332,288.950867 526.410522,286.716614 535.155212,292.148285 
	C536.011230,292.679962 536.424561,295.216614 535.934937,296.339111 
	C535.057190,298.351379 533.336365,299.995941 531.967957,301.794159 
	C531.837280,301.261627 531.706665,300.729095 531.576050,300.196564 
	C528.638489,300.383118 525.700928,300.569702 522.017395,300.891479 
	C517.144470,301.003143 513.017578,300.979614 508.890625,300.956055 
z"/>
<path fill="#E3AC62" opacity="1.000000" stroke="none" 
	d="
M314.085144,306.451874 
	C318.087036,305.991333 322.010620,305.993896 326.385162,305.992554 
	C326.836121,311.777130 326.836121,317.565582 326.836121,323.672180 
	C322.685760,323.672180 318.636749,323.672180 314.006866,323.672180 
	C314.006866,318.091278 314.006866,312.503113 314.085144,306.451874 
z"/>
<path fill="#E3AC62" opacity="1.000000" stroke="none" 
	d="
M332.086121,306.451660 
	C336.087860,305.991211 340.011139,305.993835 344.385437,305.992493 
	C344.836395,311.777313 344.836395,317.566071 344.836395,323.672302 
	C340.686432,323.672302 336.637329,323.672302 332.007721,323.672302 
	C332.007721,318.091125 332.007721,312.502960 332.086121,306.451660 
z"/>
<path fill="#F0C37A" opacity="1.000000" stroke="none" 
	d="
M447.164368,293.988556 
	C447.164368,288.866119 447.164368,283.743683 447.164368,277.827301 
	C451.239929,277.464935 455.339142,277.100494 459.971954,276.688599 
	C459.971954,282.553711 459.971954,287.808075 459.453003,293.529114 
	C455.010834,293.993378 451.087616,293.990967 447.164368,293.988556 
z"/>
<path fill="#F0C37A" opacity="1.000000" stroke="none" 
	d="
M555.909912,293.525696 
	C551.916992,293.991241 547.991638,293.993713 543.615234,293.992798 
	C543.164246,288.865417 543.164246,283.741394 543.164246,277.800629 
	C547.240967,277.449188 551.339050,277.095917 555.977417,276.696075 
	C555.977417,282.551239 555.977417,287.806915 555.909912,293.525696 
z"/>
<path fill="#E3AC62" opacity="1.000000" stroke="none" 
	d="
M459.834076,309.992004 
	C460.316528,312.111450 459.367401,314.415741 462.618347,315.901245 
	C464.101532,316.578979 463.926056,320.886414 464.507721,323.569855 
	C455.490967,327.241730 444.980286,325.153351 447.540680,310.436584 
	C451.989655,309.995026 455.911865,309.993500 459.834076,309.992004 
z"/>
<path fill="#E8B66D" opacity="1.000000" stroke="none" 
	d="
M459.902771,309.530029 
	C455.911865,309.993500 451.989655,309.995026 447.616669,309.994263 
	C447.113190,304.965393 447.060516,299.938843 447.086121,294.450409 
	C451.087616,293.990967 455.010834,293.993378 459.385040,293.992126 
	C459.881134,299.015015 459.926300,304.041504 459.902771,309.530029 
z"/>
<path fill="#E3AC62" opacity="1.000000" stroke="none" 
	d="
M556.937073,310.423401 
	C560.929321,309.709595 564.974304,309.372986 569.427124,309.014587 
	C572.244507,313.701782 574.653992,318.410767 577.323608,323.628113 
	C572.141907,323.628113 567.489624,323.628113 562.434082,323.628113 
	C560.708130,319.561646 558.848938,315.181122 556.937073,310.423401 
z"/>
<path fill="#DBA962" opacity="1.000000" stroke="none" 
	d="
M185.899078,333.516571 
	C180.844177,333.979004 175.854675,333.980347 170.464859,333.622864 
	C172.216980,327.806732 174.369385,322.349396 176.926361,317.032898 
	C180.162170,317.443451 182.993423,317.713165 185.824707,317.982849 
	C185.871277,323.007050 185.917862,328.031281 185.899078,333.516571 
z"/>
<path fill="#E3AC62" opacity="1.000000" stroke="none" 
	d="
M243.087509,309.453796 
	C247.087372,308.993378 251.011246,308.995331 255.386139,308.994324 
	C255.837158,313.780640 255.837158,318.569916 255.837158,323.674561 
	C251.688309,323.674561 247.639725,323.674561 243.011520,323.674561 
	C243.011520,319.098450 243.011520,314.507294 243.087509,309.453796 
z"/>
<path fill="#F0C37A" opacity="1.000000" stroke="none" 
	d="
M170.960083,270.002228 
	C175.622421,269.668365 180.284744,269.334503 185.398056,268.992859 
	C185.895294,273.681274 185.941544,278.377533 185.487732,283.539124 
	C182.160507,284.397827 179.333328,284.791168 176.344360,284.859802 
	C174.441727,279.690826 172.700912,274.846527 170.960083,270.002228 
z"/>
<path fill="#E3AC62" opacity="1.000000" stroke="none" 
	d="
M543.089966,310.452148 
	C547.170410,310.001740 551.174561,310.012482 555.647644,310.034790 
	C556.116516,314.495880 556.116516,318.945404 556.116516,323.691345 
	C551.664062,323.691345 547.619446,323.691345 543.013794,323.691345 
	C543.013794,319.421783 543.013794,315.167542 543.089966,310.452148 
z"/>
<path fill="#F0C37A" opacity="1.000000" stroke="none" 
	d="
M36.085419,276.437988 
	C40.097279,275.976776 44.029381,275.979340 48.408943,276.349274 
	C47.452339,282.176727 46.048267,287.636871 44.166283,293.072815 
	C41.179764,293.028717 38.671158,293.008789 36.162552,292.988831 
	C36.110252,287.626495 36.057953,282.264160 36.085419,276.437988 
z"/>
<path fill="#DBA962" opacity="1.000000" stroke="none" 
	d="
M49.221870,326.946960 
	C45.165104,327.297333 41.108341,327.647705 36.602314,327.991821 
	C36.103760,322.960022 36.054466,317.934509 36.519451,312.452087 
	C39.658379,311.993317 42.283031,311.991455 45.065384,312.349548 
	C46.556019,317.455292 47.888943,322.201141 49.221870,326.946960 
z"/>
<path fill="#E8B66D" opacity="1.000000" stroke="none" 
	d="
M508.528137,301.186432 
	C513.017578,300.979614 517.144470,301.003143 521.692993,301.035065 
	C522.069458,304.745819 522.024292,308.448212 522.043457,312.556305 
	C517.761902,312.970795 513.416016,312.979553 508.615051,312.981567 
	C508.161896,309.122192 508.163788,305.269470 508.528137,301.186432 
z"/>
<path fill="#E8B66D" opacity="1.000000" stroke="none" 
	d="
M44.907681,311.989594 
	C42.283031,311.991455 39.658379,311.993317 36.597656,311.990051 
	C36.109798,305.961761 36.058018,299.938568 36.084396,293.452087 
	C38.671158,293.008789 41.179764,293.028717 44.196899,293.535522 
	C44.772846,300.011444 44.840263,306.000519 44.907681,311.989594 
z"/>
<path fill="#E8B66D" opacity="1.000000" stroke="none" 
	d="
M185.891418,317.520691 
	C182.993423,317.713165 180.162170,317.443451 176.994293,316.603394 
	C177.230499,311.020355 177.803314,306.007599 178.788269,300.994324 
	C181.411285,300.994690 183.622131,300.995636 185.833008,300.996582 
	C185.874725,306.350555 185.916443,311.704529 185.891418,317.520691 
z"/>
<path fill="#EBBA70" opacity="1.000000" stroke="none" 
	d="
M185.904800,300.534027 
	C183.622131,300.995636 181.411285,300.994690 178.701599,300.544128 
	C177.637222,295.124542 177.071686,290.154510 176.506149,285.184509 
	C179.333328,284.791168 182.160507,284.397827 185.418930,284.000671 
	C185.892319,289.355072 185.934464,294.713287 185.904800,300.534027 
z"/>
<path fill="#F2D591" opacity="1.000000" stroke="none" 
	d="
M37.727879,257.140015 
	C37.872810,257.417816 37.714756,257.616608 37.346653,257.878357 
	C37.279030,257.684753 37.375130,257.391327 37.727879,257.140015 
z"/>
<path fill="#17130E" opacity="1.000000" stroke="none" 
	d="
M176.344360,284.859802 
	C177.071686,290.154510 177.637222,295.124542 178.289444,300.544708 
	C177.803314,306.007599 177.230499,311.020355 176.589752,316.462585 
	C174.369385,322.349396 172.216980,327.806732 169.993713,333.616516 
	C165.528351,339.360107 161.133865,344.751251 156.568298,350.448364 
	C140.918655,364.205109 122.736176,369.727051 102.577553,367.813110 
	C91.822784,366.792023 82.033669,362.101562 72.723251,355.932251 
	C62.342869,348.359985 54.719978,338.935333 49.474186,327.179688 
	C47.888943,322.201141 46.556019,317.455292 45.065384,312.349548 
	C44.840263,306.000519 44.772846,300.011444 44.674812,293.559692 
	C46.048267,287.636871 47.452339,282.176727 48.862083,276.345947 
	C51.846550,270.868042 54.825344,265.760803 57.891403,260.324341 
	C64.229233,254.534088 70.479797,249.073074 76.918892,243.326950 
	C95.384064,233.385559 114.310097,231.017776 134.057159,237.994476 
	C135.765961,238.598206 137.429337,239.330490 139.476074,240.038330 
	C146.527008,245.013168 153.215698,249.952698 160.167709,255.067688 
	C163.765808,260.017120 167.100586,264.791107 170.697723,269.783630 
	C172.700912,274.846527 174.441727,279.690826 176.344360,284.859802 
M47.949966,302.865692 
	C48.144550,311.697632 49.954239,320.132080 54.198544,328.673401 
	C59.271442,338.184174 65.437012,346.754791 75.216682,353.072296 
	C76.897575,354.132874 78.539780,355.261383 80.265251,356.243652 
	C101.599823,368.388489 131.019684,366.593842 148.845734,351.910522 
	C149.865829,350.845276 150.726212,349.532104 151.932098,348.755280 
	C159.450409,343.912201 164.157730,336.847443 168.374451,328.406219 
	C169.114990,326.252167 169.722733,324.041138 170.618256,321.953583 
	C175.358734,310.902924 175.973450,299.577576 173.055542,287.193604 
	C172.736862,286.291138 172.327026,285.409637 172.113571,284.482941 
	C169.967407,275.166168 165.900467,266.864441 158.956558,259.296356 
	C146.700745,245.593491 131.456451,238.264984 113.018982,237.633972 
	C86.765007,236.735443 60.597183,253.797150 52.380280,277.371185 
	C50.955936,285.576721 49.531593,293.782257 47.949966,302.865692 
z"/>
<path fill="#000000" opacity="1.000000" stroke="none" 
	d="
M480.914429,306.399048 
	C481.011292,305.379883 481.030090,304.650665 481.388916,304.181549 
	C482.740173,302.415009 484.202057,300.733154 485.622498,299.019562 
	C486.758667,301.079376 487.894836,303.139191 489.097290,305.594360 
	C488.358978,309.390625 487.554352,312.791504 486.615112,316.761505 
	C481.361542,314.117401 481.062225,310.518860 480.914429,306.399048 
z"/>
<path fill="#000000" opacity="1.000000" stroke="none" 
	d="
M426.091064,309.614594 
	C426.160828,313.261414 424.033417,314.288666 421.361450,313.849548 
	C420.429443,313.696381 419.771454,311.876160 418.912109,310.402283 
	C418.928680,308.864716 419.021484,307.742126 419.127686,306.457306 
	C422.224915,305.386627 424.689392,305.814880 426.091064,309.614594 
z"/>
<path fill="#000000" opacity="1.000000" stroke="none" 
	d="
M419.012512,296.317444 
	C418.962799,294.038849 419.087128,292.083862 419.211456,290.128845 
	C419.644073,289.808228 420.076660,289.487610 420.509277,289.166962 
	C422.005157,290.840729 423.501038,292.514526 424.939575,294.575958 
	C422.983673,295.522766 421.085114,296.081909 419.012512,296.317444 
z"/>
<path fill="#000000" opacity="1.000000" stroke="none" 
	d="
M287.908569,313.341766 
	C289.417206,309.385254 289.906586,309.218872 293.092407,311.608398 
	C291.028809,316.587555 290.489899,316.764740 287.908569,313.341766 
z"/>
<path fill="#F2D591" opacity="1.000000" stroke="none" 
	d="
M52.933472,276.877350 
	C60.597183,253.797150 86.765007,236.735443 113.018982,237.633972 
	C131.456451,238.264984 146.700745,245.593491 158.782227,259.747131 
	C157.376877,260.812073 156.145859,261.426239 154.600586,261.924805 
	C147.677155,253.969986 139.291595,248.789963 129.646103,245.612457 
	C110.225548,239.214722 91.955513,242.798767 75.783440,254.260666 
	C67.347572,260.239563 60.584213,268.746490 56.558243,278.929871 
	C55.131584,278.216431 54.032528,277.546906 52.933472,276.877350 
z"/>
<path fill="#D08B43" opacity="1.000000" stroke="none" 
	d="
M148.214813,352.120789 
	C131.019684,366.593842 101.599823,368.388489 80.265251,356.243652 
	C78.539780,355.261383 76.897575,354.132874 75.208359,352.482361 
	C76.334808,351.169891 77.469566,350.447327 78.924065,349.813110 
	C84.508636,352.284454 89.586319,355.292328 95.072746,356.935486 
	C112.876015,362.267487 129.489120,358.789673 145.063080,349.323578 
	C146.159164,350.475159 147.186996,351.297974 148.214813,352.120789 
z"/>
<path fill="#DBA962" opacity="1.000000" stroke="none" 
	d="
M173.069138,287.987000 
	C175.973450,299.577576 175.358734,310.902924 170.618256,321.953583 
	C169.722733,324.041138 169.114990,326.252167 167.791229,328.690277 
	C166.120468,328.274048 165.032913,327.573761 163.990112,326.507568 
	C169.707077,313.895172 170.971970,301.155090 168.705536,287.982849 
	C170.424454,287.989380 171.746796,287.988190 173.069138,287.987000 
z"/>
<path fill="#D7994F" opacity="1.000000" stroke="none" 
	d="
M78.604324,349.724762 
	C77.469566,350.447327 76.334808,351.169891 74.989639,352.242249 
	C65.437012,346.754791 59.271442,338.184174 54.515427,328.322815 
	C55.915859,327.247589 56.999401,326.522919 58.354446,326.017273 
	C63.317142,335.739929 69.906616,343.628937 78.604324,349.724762 
z"/>
<path fill="#F0C37A" opacity="1.000000" stroke="none" 
	d="
M173.062347,287.590302 
	C171.746796,287.988190 170.424454,287.989380 168.572906,287.618011 
	C165.744171,277.762054 161.156616,269.470398 154.914841,262.040405 
	C156.145859,261.426239 157.376877,260.812073 158.922882,260.058411 
	C165.900467,266.864441 169.967407,275.166168 172.113571,284.482941 
	C172.327026,285.409637 172.736862,286.291138 173.062347,287.590302 
z"/>
<path fill="#D7994F" opacity="1.000000" stroke="none" 
	d="
M163.945343,326.873474 
	C165.032913,327.573761 166.120468,328.274048 167.555511,328.979004 
	C164.157730,336.847443 159.450409,343.912201 151.932098,348.755280 
	C150.726212,349.532104 149.865829,350.845276 148.530273,352.015656 
	C147.186996,351.297974 146.159164,350.475159 145.241989,349.042572 
	C153.331436,342.782471 159.120834,335.244019 163.945343,326.873474 
z"/>
<path fill="#DBA962" opacity="1.000000" stroke="none" 
	d="
M58.082951,325.798218 
	C56.999401,326.522919 55.915859,327.247589 54.482071,327.978027 
	C49.954239,320.132080 48.144550,311.697632 48.414566,302.436035 
	C50.165768,301.997284 51.452377,301.988159 52.833496,302.404663 
	C54.646328,310.486267 56.364643,318.142273 58.082951,325.798218 
z"/>
<path fill="#EBBA70" opacity="1.000000" stroke="none" 
	d="
M52.738983,301.979065 
	C51.452377,301.988159 50.165768,301.997284 48.493206,301.997070 
	C49.531593,293.782257 50.955936,285.576721 52.656876,277.124268 
	C54.032528,277.546906 55.131584,278.216431 56.563179,279.313904 
	C55.510136,287.154266 54.124561,294.566650 52.738983,301.979065 
z"/>
<path fill="#080807" opacity="1.000000" stroke="none" 
	d="
M52.833500,302.404663 
	C54.124561,294.566650 55.510136,287.154266 56.890778,279.357788 
	C60.584213,268.746490 67.347572,260.239563 75.783440,254.260666 
	C91.955513,242.798767 110.225548,239.214722 129.646103,245.612457 
	C139.291595,248.789963 147.677155,253.969986 154.600586,261.924805 
	C161.156616,269.470398 165.744171,277.762054 168.176346,287.610321 
	C170.971970,301.155090 169.707077,313.895172 163.990112,326.507568 
	C159.120834,335.244019 153.331436,342.782471 145.173737,348.713776 
	C129.489120,358.789673 112.876015,362.267487 95.072746,356.935486 
	C89.586319,355.292328 84.508636,352.284454 78.924065,349.813110 
	C69.906616,343.628937 63.317142,335.739929 58.354454,326.017273 
	C56.364643,318.142273 54.646328,310.486267 52.833500,302.404663 
M138.251785,285.178864 
	C137.209717,283.904053 136.078171,282.691620 135.139145,281.344971 
	C123.256340,264.303253 94.813454,266.191193 84.231613,285.111420 
	C81.225418,290.694519 79.163399,296.490356 80.082649,303.783234 
	C80.985786,310.791351 83.354477,317.113037 88.882729,322.613068 
	C102.913452,335.906860 123.514801,335.167206 135.486038,320.576172 
	C138.989822,315.199005 142.681412,309.893036 142.443405,302.206757 
	C141.140182,296.751404 139.836945,291.296082 138.251785,285.178864 
z"/>
<path fill="#DBA962" opacity="1.000000" stroke="none" 
	d="
M142.154160,302.987640 
	C142.681412,309.893036 138.989822,315.199005 134.919983,320.619080 
	C133.485428,320.085724 132.616913,319.509430 131.891693,318.611389 
	C132.664261,317.110840 133.293533,315.932037 134.094162,314.432220 
	C131.763077,313.938812 130.075409,313.581573 128.456421,313.238892 
	C126.644737,316.316284 125.021004,319.074402 123.213699,321.420837 
	C122.617317,319.885895 122.204506,318.762665 121.862411,317.296814 
	C122.589111,315.505005 123.245102,314.055878 124.101128,312.164886 
	C120.377686,311.795990 117.087639,311.470032 113.522842,311.116821 
	C113.342773,314.520844 113.197510,317.266968 112.676910,320.016846 
	C111.300751,320.010162 110.299934,319.999664 109.233276,319.541992 
	C109.167442,316.526337 109.167442,313.957825 109.167442,311.020782 
	C105.267883,311.467438 102.192886,311.819672 98.174072,312.279999 
	C99.837402,315.181610 101.176094,317.516907 102.053787,319.892853 
	C100.359444,319.972229 99.126114,320.010956 97.577621,319.867004 
	C96.268311,317.624420 95.274162,315.564484 94.321289,313.590088 
	C88.596565,314.363190 88.596565,314.363190 89.910522,318.598572 
	C89.436043,320.022552 89.040993,321.044128 88.645935,322.065704 
	C83.354477,317.113037 80.985786,310.791351 80.520615,303.389191 
	C81.963669,302.996246 82.968773,302.997345 84.106354,303.354004 
	C84.839333,306.079926 85.439812,308.450317 86.102913,311.067871 
	C88.740112,310.204498 90.863983,309.509186 92.848854,308.859375 
	C92.654060,306.586517 92.499580,304.784119 92.721802,302.984192 
	C94.102974,302.994873 95.107468,303.003113 96.272736,303.359985 
	C96.731857,305.103302 97.030197,306.497955 97.364700,308.061676 
	C101.469193,307.571716 105.198952,307.126465 108.869705,306.688263 
	C109.024895,305.282196 109.151741,304.132874 109.655090,302.985870 
	C111.035568,302.994141 112.039536,303.000092 113.147583,303.404694 
	C113.764450,304.857452 114.142494,306.718689 114.812569,306.830505 
	C118.327438,307.417236 121.916229,307.561127 125.529236,307.863007 
	C125.888336,305.897980 126.154488,304.441559 126.792786,302.985901 
	C128.157257,302.997437 129.149582,303.008209 130.220398,303.439026 
	C130.198792,305.473358 130.098694,307.087646 129.984253,308.933228 
	C132.145187,309.563751 134.140884,310.146027 136.584106,310.858887 
	C137.237991,308.011383 137.815277,305.497498 138.706665,302.981995 
	C140.065231,302.982819 141.109695,302.985229 142.154160,302.987640 
z"/>
<path fill="#E8B66D" opacity="1.000000" stroke="none" 
	d="
M96.111954,303.011353 
	C95.107468,303.003113 94.102974,302.994873 92.629913,302.567139 
	C92.336990,299.068878 92.512634,295.990082 92.699142,292.720917 
	C90.571915,292.104401 88.563148,291.522247 85.627899,290.671570 
	C85.045975,295.008514 84.509926,299.003479 83.973877,302.998474 
	C82.968773,302.997345 81.963669,302.996246 80.581696,302.990234 
	C79.163399,296.490356 81.225418,290.694519 84.681908,285.200562 
	C86.244614,285.871246 87.357033,286.452728 88.864639,287.130676 
	C91.683243,288.114807 94.185600,289.398560 96.082108,286.075073 
	C97.351456,286.505280 98.280693,286.795807 99.165413,287.494263 
	C101.833214,288.677917 104.517693,289.631378 107.283653,290.064758 
	C107.778847,290.142365 108.610931,288.069916 109.662033,286.990051 
	C111.035423,286.995941 112.034241,287.002014 113.142517,287.419067 
	C114.290344,288.630157 115.386086,290.163300 116.355911,290.087372 
	C118.851250,289.892120 121.290810,288.983978 123.752655,288.360718 
	C123.605293,287.901550 123.457939,287.442383 123.797012,286.965454 
	C125.244781,286.805664 126.206116,286.663635 127.431564,286.740723 
	C129.809616,286.977264 131.923538,286.994629 134.427979,286.992798 
	C136.056915,286.595978 137.295319,286.218353 138.533722,285.840729 
	C139.836945,291.296082 141.140182,296.751404 142.298782,302.597198 
	C141.109695,302.985229 140.065231,302.982819 138.658112,302.536865 
	C137.865219,298.436920 137.434967,294.780518 136.944931,290.615997 
	C134.123428,291.425354 132.148865,291.991760 130.141907,292.567444 
	C130.141907,296.237427 130.141907,299.628204 130.141907,303.018982 
	C129.149582,303.008209 128.157257,302.997437 126.747574,302.531433 
	C126.115181,299.363861 125.900139,296.651459 125.659599,293.617401 
	C121.237335,294.083008 117.496452,294.476868 113.534630,294.893982 
	C113.359444,297.787659 113.201477,300.396820 113.043518,303.006042 
	C112.039536,303.000092 111.035568,302.994141 109.581848,302.542419 
	C109.132111,299.720306 109.132111,297.343994 109.132111,294.866791 
	C104.714172,294.483826 101.020988,294.163696 97.015739,293.816528 
	C96.682869,297.203033 96.397415,300.107208 96.111954,303.011353 
z"/>
<path fill="#F0C37A" opacity="1.000000" stroke="none" 
	d="
M127.167442,286.521576 
	C126.206116,286.663635 125.244781,286.805664 123.604576,286.669525 
	C120.118622,282.865479 117.311539,279.339630 114.504456,275.813751 
	C114.013992,276.109528 113.523529,276.405334 113.033066,276.701111 
	C113.033066,280.136780 113.033066,283.572449 113.033066,287.008118 
	C112.034241,287.002014 111.035423,286.995941 109.585205,286.543732 
	C109.133812,282.913391 109.133812,279.729156 109.133812,276.544952 
	C108.541481,276.279449 107.949150,276.013947 107.356819,275.748474 
	C104.641190,279.527771 101.925560,283.307068 99.209930,287.086365 
	C98.280693,286.795807 97.351456,286.505280 96.157974,285.723267 
	C97.707108,282.246124 99.520477,279.260406 101.986465,275.200134 
	C95.794487,278.321960 90.938293,281.237579 88.469452,287.034210 
	C87.357033,286.452728 86.244614,285.871246 84.975235,284.995636 
	C94.813454,266.191193 123.256340,264.303253 135.139145,281.344971 
	C136.078171,282.691620 137.209717,283.904053 138.392761,285.509796 
	C137.295319,286.218353 136.056915,286.595978 134.428207,286.642761 
	C130.756897,281.237854 126.509399,277.505066 120.236000,275.549530 
	C122.834450,279.662720 125.000946,283.092133 127.167442,286.521576 
z"/>
<path fill="#D7994F" opacity="1.000000" stroke="none" 
	d="
M88.764336,322.339386 
	C89.040993,321.044128 89.436043,320.022552 90.227203,318.681152 
	C93.921539,320.745148 97.219765,323.128967 100.736435,325.662720 
	C101.208412,325.768677 101.461960,325.724701 101.715500,325.680695 
	C101.516449,325.416840 101.317406,325.153015 101.014214,324.581177 
	C99.904297,322.865326 98.898537,321.457520 97.892776,320.049683 
	C99.126114,320.010956 100.359444,319.972229 102.302856,320.093719 
	C104.772476,321.964600 106.532028,323.675262 108.835083,325.914337 
	C109.047478,323.202240 109.173294,321.595703 109.299110,319.989197 
	C110.299934,319.999664 111.300751,320.010162 112.771408,320.391602 
	C113.313705,322.279053 113.386154,323.795593 113.526901,326.741577 
	C116.898224,323.028717 119.344955,320.334076 121.791695,317.639465 
	C122.204506,318.762665 122.617317,319.885895 123.081703,321.700562 
	C122.549767,323.118866 121.966270,323.845734 121.382767,324.572571 
	C121.664589,324.959045 121.946404,325.345520 122.228226,325.731995 
	C125.401611,323.465698 128.574997,321.199402 131.748398,318.933105 
	C132.616913,319.509430 133.485428,320.085724 134.630219,320.811340 
	C123.514801,335.167206 102.913452,335.906860 88.764336,322.339386 
z"/>
<path fill="#17130E" opacity="1.000000" stroke="none" 
	d="
M113.147591,303.404663 
	C113.201477,300.396820 113.359444,297.787659 113.534630,294.893982 
	C117.496452,294.476868 121.237335,294.083008 125.659599,293.617401 
	C125.900139,296.651459 126.115181,299.363861 126.375435,302.530701 
	C126.154488,304.441559 125.888336,305.897980 125.529236,307.863007 
	C121.916229,307.561127 118.327438,307.417236 114.812569,306.830505 
	C114.142494,306.718689 113.764450,304.857452 113.147591,303.404663 
z"/>
<path fill="#080807" opacity="1.000000" stroke="none" 
	d="
M96.272736,303.359985 
	C96.397415,300.107208 96.682869,297.203033 97.015739,293.816528 
	C101.020988,294.163696 104.714172,294.483826 109.132111,294.866791 
	C109.132111,297.343994 109.132111,299.720306 109.205353,302.540070 
	C109.151741,304.132874 109.024895,305.282196 108.869705,306.688263 
	C105.198952,307.126465 101.469193,307.571716 97.364700,308.061676 
	C97.030197,306.497955 96.731857,305.103302 96.272736,303.359985 
z"/>
<path fill="#17130E" opacity="1.000000" stroke="none" 
	d="
M130.220398,303.439026 
	C130.141907,299.628204 130.141907,296.237427 130.141907,292.567444 
	C132.148865,291.991760 134.123428,291.425354 136.944931,290.615997 
	C137.434967,294.780518 137.865219,298.436920 138.344025,302.538452 
	C137.815277,305.497498 137.237991,308.011383 136.584106,310.858887 
	C134.140884,310.146027 132.145187,309.563751 129.984253,308.933228 
	C130.098694,307.087646 130.198792,305.473358 130.220398,303.439026 
z"/>
<path fill="#17130E" opacity="1.000000" stroke="none" 
	d="
M84.106361,303.354004 
	C84.509926,299.003479 85.045975,295.008514 85.627899,290.671570 
	C88.563148,291.522247 90.571915,292.104401 92.699142,292.720917 
	C92.512634,295.990082 92.336990,299.068878 92.253227,302.564697 
	C92.499580,304.784119 92.654060,306.586517 92.848854,308.859375 
	C90.863983,309.509186 88.740112,310.204498 86.102913,311.067871 
	C85.439812,308.450317 84.839333,306.079926 84.106361,303.354004 
z"/>
<path fill="#17130E" opacity="1.000000" stroke="none" 
	d="
M121.862411,317.296814 
	C119.344955,320.334076 116.898224,323.028717 113.526901,326.741577 
	C113.386154,323.795593 113.313705,322.279053 113.146744,320.387817 
	C113.197510,317.266968 113.342773,314.520844 113.522842,311.116821 
	C117.087639,311.470032 120.377686,311.795990 124.101128,312.164886 
	C123.245102,314.055878 122.589111,315.505005 121.862411,317.296814 
z"/>
<path fill="#17130E" opacity="1.000000" stroke="none" 
	d="
M109.233276,319.542023 
	C109.173294,321.595703 109.047478,323.202240 108.835083,325.914337 
	C106.532028,323.675262 104.772476,321.964600 102.763855,320.053070 
	C101.176094,317.516907 99.837402,315.181610 98.174072,312.279999 
	C102.192886,311.819672 105.267883,311.467438 109.167442,311.020782 
	C109.167442,313.957825 109.167442,316.526337 109.233276,319.542023 
z"/>
<path fill="#17130E" opacity="1.000000" stroke="none" 
	d="
M131.891693,318.611389 
	C128.574997,321.199402 125.401611,323.465698 122.228226,325.731995 
	C121.946404,325.345520 121.664589,324.959045 121.382767,324.572571 
	C121.966270,323.845734 122.549767,323.118866 123.265274,322.112305 
	C125.021004,319.074402 126.644737,316.316284 128.456421,313.238892 
	C130.075409,313.581573 131.763077,313.938812 134.094162,314.432220 
	C133.293533,315.932037 132.664261,317.110840 131.891693,318.611389 
z"/>
<path fill="#17130E" opacity="1.000000" stroke="none" 
	d="
M97.577621,319.867004 
	C98.898537,321.457520 99.904297,322.865326 100.860397,324.733490 
	C100.810730,325.193817 100.517982,325.512787 100.517990,325.512787 
	C97.219765,323.128967 93.921539,320.745148 90.306625,318.278748 
	C88.596565,314.363190 88.596565,314.363190 94.321289,313.590088 
	C95.274162,315.564484 96.268311,317.624420 97.577621,319.867004 
z"/>
<path fill="#17130E" opacity="1.000000" stroke="none" 
	d="
M113.142517,287.419067 
	C113.033066,283.572449 113.033066,280.136780 113.033066,276.701111 
	C113.523529,276.405334 114.013992,276.109528 114.504456,275.813751 
	C117.311539,279.339630 120.118622,282.865479 123.118149,286.687317 
	C123.457939,287.442383 123.605293,287.901550 123.752655,288.360718 
	C121.290810,288.983978 118.851250,289.892120 116.355911,290.087372 
	C115.386086,290.163300 114.290344,288.630157 113.142517,287.419067 
z"/>
<path fill="#080807" opacity="1.000000" stroke="none" 
	d="
M99.165405,287.494263 
	C101.925560,283.307068 104.641190,279.527771 107.356819,275.748474 
	C107.949150,276.013947 108.541481,276.279449 109.133812,276.544952 
	C109.133812,279.729156 109.133812,282.913391 109.210648,286.543884 
	C108.610931,288.069916 107.778847,290.142365 107.283653,290.064758 
	C104.517693,289.631378 101.833214,288.677917 99.165405,287.494263 
z"/>
<path fill="#17130E" opacity="1.000000" stroke="none" 
	d="
M127.431564,286.740723 
	C125.000946,283.092133 122.834450,279.662720 120.236000,275.549530 
	C126.509399,277.505066 130.756897,281.237854 134.037689,286.661987 
	C131.923538,286.994629 129.809616,286.977264 127.431564,286.740723 
z"/>
<path fill="#17130E" opacity="1.000000" stroke="none" 
	d="
M88.864639,287.130676 
	C90.938293,281.237579 95.794487,278.321960 101.986465,275.200134 
	C99.520477,279.260406 97.707108,282.246124 95.817871,285.583618 
	C94.185600,289.398560 91.683243,288.114807 88.864639,287.130676 
z"/>
<path fill="#17130E" opacity="1.000000" stroke="none" 
	d="
M100.964546,325.041504 
	C101.317406,325.153015 101.516449,325.416840 101.715500,325.680695 
	C101.461960,325.724701 101.208412,325.768677 100.736427,325.662720 
	C100.517982,325.512787 100.810730,325.193817 100.964546,325.041504 
z"/>
</svg>