<?xml version="1.0" standalone="no"?>
<!DOCTYPE svg PUBLIC "-//W3C//DTD SVG 20010904//EN"
 "http://www.w3.org/TR/2001/REC-SVG-20010904/DTD/svg10.dtd">
<svg version="1.0" xmlns="http://www.w3.org/2000/svg"
 width="600.000000pt" height="600.000000pt" viewBox="0 0 600.000000 600.000000"
 preserveAspectRatio="xMidYMid meet">

<g transform="translate(0.000000,600.000000) scale(0.100000,-0.100000)"
fill="#000000" stroke="none">
<path d="M965 3655 c-265 -58 -469 -267 -521 -535 -68 -345 165 -698 512 -775
115 -26 264 -17 370 22 199 74 347 226 415 423 30 89 38 269 15 360 -21 84
-84 212 -134 272 -161 193 -421 285 -657 233z m290 -40 c113 -29 203 -81 290
-169 130 -130 187 -265 188 -441 1 -274 -168 -510 -428 -602 -70 -24 -95 -27
-200 -28 -141 0 -221 20 -324 83 -354 214 -415 695 -126 987 78 79 192 145
292 169 79 19 234 20 308 1z"/>
<path d="M1038 3578 c-131 -13 -251 -71 -348 -168 -226 -226 -229 -589 -5
-816 79 -80 134 -115 233 -149 147 -52 297 -40 448 34 348 172 430 633 161
917 -134 141 -296 202 -489 182z m199 -296 c66 -34 109 -78 143 -144 56 -113
35 -257 -52 -347 -124 -130 -336 -129 -453 1 -57 62 -79 120 -79 208 0 58 5
87 23 128 28 63 112 143 173 166 62 23 190 16 245 -12z"/>
<path d="M958 3231 c-25 -16 -55 -42 -66 -59 l-22 -30 30 -11 c29 -9 31 -8 50
28 10 21 31 52 45 70 33 39 22 39 -37 2z"/>
<path d="M1213 3228 c13 -18 32 -48 41 -65 17 -34 57 -46 72 -22 9 15 -52 76
-100 101 l-38 20 25 -34z"/>
<path d="M1032 3206 c-35 -38 -60 -82 -50 -90 1 -2 24 -6 51 -8 l47 -6 0 74
c0 41 -2 74 -4 74 -2 0 -22 -20 -44 -44z"/>
<path d="M1122 3178 l3 -72 50 3 c28 1 52 5 54 7 13 12 -80 134 -101 134 -5 0
-8 -32 -6 -72z"/>
<path d="M843 3084 c-12 -28 -10 -161 2 -173 6 -6 22 -7 40 -3 l29 8 1 87 c1
56 -2 87 -9 87 -6 0 -21 3 -33 6 -16 5 -25 1 -30 -12z"/>
<path d="M1308 3093 c-15 -4 -18 -17 -18 -88 0 -89 0 -89 42 -99 23 -5 27 -2
33 23 9 40 9 101 0 139 -7 32 -16 36 -57 25z"/>
<path d="M1200 3072 c-79 -6 -80 -7 -80 -71 l0 -58 61 -7 c34 -4 63 -5 66 -2
9 8 5 128 -3 135 -5 3 -25 5 -44 3z"/>
<path d="M954 3045 c-7 -27 0 -102 10 -112 3 -3 30 -2 61 2 l56 7 -3 61 -3 62
-57 3 c-55 3 -58 2 -64 -23z"/>
<path d="M1003 2893 c-13 -2 -23 -10 -23 -17 0 -16 49 -83 79 -110 l21 -19 0
76 0 77 -27 -1 c-16 -1 -38 -4 -50 -6z"/>
<path d="M1120 2826 c0 -42 4 -76 9 -76 21 0 110 124 98 136 -2 3 -27 7 -56
11 l-51 6 0 -77z"/>
<path d="M892 2869 l-24 -9 21 -26 c25 -31 56 -56 100 -79 l34 -17 -35 48
c-20 27 -39 59 -42 72 -8 24 -18 26 -54 11z"/>
<path d="M1265 2860 c-4 -11 -22 -41 -41 -65 -19 -25 -34 -47 -34 -50 0 -11
63 28 101 62 44 40 49 58 17 67 -34 9 -36 8 -43 -14z"/>
</g>
</svg>
