<svg xmlns="http://www.w3.org/2000/svg" xmlns:xlink="http://www.w3.org/1999/xlink" width="500" zoomAndPan="magnify" viewBox="0 0 375 374.999991" height="500" preserveAspectRatio="xMidYMid meet" version="1.0"><defs><clipPath id="5f46a608b2"><path d="M 79.4375 100 L 266 100 L 266 337.5 L 79.4375 337.5 Z M 79.4375 100 " clip-rule="nonzero"/></clipPath><clipPath id="4242391890"><path d="M 108 40 L 295.4375 40 L 295.4375 278 L 108 278 Z M 108 40 " clip-rule="nonzero"/></clipPath></defs><g clip-path="url(#5f46a608b2)"><path fill="#ffffff" d="M 235.320312 278.460938 C 235.320312 248.976562 235.320312 219.945312 235.320312 190.90625 C 234.945312 190.761719 234.574219 190.621094 234.199219 190.472656 C 218.769531 209.859375 203.332031 229.238281 187.339844 249.324219 C 181.648438 242.230469 176.195312 235.441406 170.261719 228.042969 C 141.152344 264.640625 112.277344 300.933594 83.164062 337.539062 C 81.835938 336.472656 80.773438 335.625 79.511719 334.609375 C 141.480469 256.65625 203.222656 178.988281 265.75 100.332031 C 265.75 160.453125 265.75 219.3125 265.75 278.460938 C 255.757812 278.460938 246.027344 278.460938 235.320312 278.460938 Z M 235.320312 278.460938 " fill-opacity="1" fill-rule="nonzero"/></g><g clip-path="url(#4242391890)"><path fill="#ffffff" d="M 108.945312 101.144531 C 131.5625 129.578125 153.46875 157.125 175.867188 185.289062 C 177.570312 183.242188 179.066406 181.503906 180.488281 179.710938 C 216.410156 134.503906 252.316406 89.269531 288.292969 44.105469 C 289.878906 42.117188 291.382812 37.527344 295.34375 42.753906 C 250.195312 99.550781 205.015625 156.390625 159.308594 213.886719 C 152.941406 205.996094 146.875 198.46875 140.101562 190.078125 C 139.84375 192.285156 139.566406 193.550781 139.566406 194.820312 C 139.542969 207.921875 139.703125 221.035156 139.433594 234.132812 C 139.375 236.828125 138.363281 239.960938 136.730469 242.082031 C 127.894531 253.632812 118.722656 264.929688 108.941406 277.230469 C 108.945312 218.214844 108.945312 160.316406 108.945312 101.144531 Z M 108.945312 101.144531 " fill-opacity="1" fill-rule="nonzero"/></g></svg>